<svg viewBox="0 0 16 16" xmlns="http://www.w3.org/2000/svg"><path d="M12.863 7.952a.47.47 0 0 0-.468.444h-.003v3.369a.627.627 0 0 1-.627.627h-7.53a.627.627 0 0 1-.627-.627v-7.53c0-.346.28-.627.627-.627h3.369v-.002a.47.47 0 0 0 0-.937v-.002H3.922c-.693 0-1.255.562-1.255 1.255v8.156c0 .693.562 1.255 1.255 1.255h8.156c.693 0 1.255-.562 1.255-1.255V8.396h-.002a.47.47 0 0 0-.468-.444m.47-4.815v3.138a.47.47 0 0 1-.94 0V4.273L6.768 9.897a.47.47 0 0 1-.666 0 .47.47 0 0 1 0-.666l5.624-5.623H9.725a.47.47 0 0 1 0-.941h3.138c.06 0 .118.012.172.033l.006.002c.116.048.209.14.257.256l.002.007c.02.054.033.111.033.172" fill="#ffffff" fill-rule="evenodd"/></svg>