<?xml version="1.0" encoding="UTF-8"?>
<svg width="20px" height="20px" viewBox="0 0 20 20" version="1.1" xmlns="http://www.w3.org/2000/svg" xmlns:xlink="http://www.w3.org/1999/xlink">
    <title>切片</title>
    <g id="20214月样式迭代" stroke="none" stroke-width="1" fill="none" fill-rule="evenodd">
        <g id="OTA-下载失败" transform="translate(-20.000000, -53.000000)" fill="#F5AD01" fill-rule="nonzero">
            <g id="icon/alert/caution" transform="translate(20.000000, 53.000000)">
                <path d="M10,0 C15.5228475,0 20,4.4771525 20,10 C20,15.5228475 15.5228475,20 10,20 C4.4771525,20 0,15.5228475 0,10 C0,4.4771525 4.4771525,0 10,0 Z M10,13.1914894 C9.17744824,13.1914894 8.5106383,13.8582993 8.5106383,14.6808511 C8.5106383,15.5034028 9.17744824,16.1702128 10,16.1702128 C10.8225518,16.1702128 11.4893617,15.5034028 11.4893617,14.6808511 C11.4893617,13.8582993 10.8225518,13.1914894 10,13.1914894 Z M10.0002031,3.40425532 C9.86185903,3.40425532 9.72392236,3.41935218 9.58880934,3.44928146 C8.55605241,3.67805047 7.90302477,4.70647679 8.1302313,5.74633592 L8.1302313,5.74633592 L9.36581653,11.4012553 C9.42021902,11.6502399 9.61335403,11.8447031 9.86063809,11.8994797 C10.2110001,11.9770895 10.5575101,11.7540268 10.6345898,11.4012553 L10.6345898,11.4012553 L11.870175,5.74633592 C11.8998999,5.61029374 11.9148936,5.47140849 11.9148936,5.33211299 C11.9148936,4.2673866 11.0576575,3.40425532 10.0002031,3.40425532 Z" id="形状结合"></path>
            </g>
        </g>
    </g>
</svg>