<?xml version="1.0" encoding="UTF-8"?>
<svg width="20px" height="20px" viewBox="0 0 20 20" version="1.1" xmlns="http://www.w3.org/2000/svg" xmlns:xlink="http://www.w3.org/1999/xlink">
    <title>fangda-3备份 2</title>
    <g id="截屏0401" stroke="none" stroke-width="1" fill="none" fill-rule="evenodd">
        <g id="图片预览图标" transform="translate(-718.000000, -287.000000)" fill="#3E7EFF" fill-rule="nonzero">
            <g id="fangda-3备份-2" transform="translate(718.000000, 287.000000)">
                <path d="M13.0390686,8.3222627 L5.44818227,8.3222627 C5.34121281,8.32304069 5.25468842,8.40956507 5.25391043,8.51653453 L5.25391043,9.97643025 C5.25391043,10.0835654 5.34247553,10.1707021 5.44961074,10.1707021 L13.0390686,10.1707021 C13.1460381,10.1699241 13.2325625,10.0833997 13.2333405,9.97643025 L13.2333405,8.51510605 C13.2325556,8.40758203 13.1451671,8.32083422 13.0376402,8.32083422 L13.0390686,8.3222627 Z M19.9471466,18.6358117 L16.3959717,15.0846368 C19.3972469,11.4076158 19.123665,6.05455032 15.7631598,2.7026641 C12.1634169,-0.898507246 6.31669166,-0.898507246 2.70123563,2.7026641 C-0.899935723,6.31669168 -0.899935723,12.1648454 2.70123563,15.7645882 C6.05312184,19.1250935 11.4061873,19.3986754 15.0832083,16.3974002 L18.6343833,19.9485751 C18.7115206,20.0171416 18.8357974,20.0171416 18.901507,19.9485751 L19.9471466,18.9029355 C20.0157132,18.8372259 20.0157132,18.7129491 19.9471466,18.6358117 Z M4.01542746,14.4761088 C1.12841787,11.5873551 1.12841787,6.90560964 4.01542746,4.01685594 C6.90418116,1.12984635 11.5859267,1.12984635 14.4746804,4.01685594 C17.36169,6.90560964 17.36169,11.5873551 14.4746804,14.4761088 C11.5859267,17.3631184 6.90418116,17.3631184 4.01542746,14.4761088 Z" id="形状"></path>
            </g>
        </g>
    </g>
</svg>