<?xml version="1.0" encoding="UTF-8"?>
<svg width="20px" height="20px" viewBox="0 0 20 20" version="1.1" xmlns="http://www.w3.org/2000/svg" xmlns:xlink="http://www.w3.org/1999/xlink">
    <title>shuaxin-3</title>
    <g id="截屏0401" stroke="none" stroke-width="1" fill="none" fill-rule="evenodd">
        <g id="图片预览图标" transform="translate(-762.000000, -174.000000)" fill="#8F959E" fill-rule="nonzero">
            <g id="shuaxin-3" transform="translate(762.000000, 174.000000)">
                <path d="M19.4015385,2.73417249 L18.0457692,3.76242424 C16.1973077,1.47095571 13.3223077,0 10.0938462,0 C4.51923077,0 0.00730769231,4.37072261 -8.84477675e-06,9.77864802 C-0.00730769231,15.190676 4.51461538,19.5804196 10.0938462,19.5804196 C14.4519231,19.5804196 18.1657692,16.8995804 19.5792308,13.1446154 C19.5968112,13.097646 19.594259,13.0458053 19.5721443,13.0006735 C19.5500295,12.9555418 19.5101948,12.9208792 19.4615385,12.9044289 L18.0984615,12.4497902 C17.9996537,12.416998 17.8919163,12.466668 17.8557692,12.5616783 C17.8119987,12.6787506 17.7646703,12.7945431 17.7138462,12.9089044 C17.2995147,13.8623844 16.6978218,14.7285802 15.9423077,15.4592075 C15.1888333,16.19116 14.2967478,16.7752066 13.315,17.1793007 C12.2972701,17.5968171 11.2031356,17.810941 10.0980769,17.8088578 C8.98038462,17.8088578 7.89884615,17.5966434 6.88192308,17.1793007 C5.89921855,16.7769163 5.00681207,16.1926595 4.25461538,15.4592075 C3.4989633,14.7286132 2.89713824,13.8624151 2.48269231,12.9089044 C2.0523612,11.9214349 1.83168543,10.8599904 1.83384615,9.78797203 C1.83384615,8.70377622 2.05269231,7.65501166 2.48269231,6.66666667 C2.89718182,5.71328888 3.49900459,4.84722084 4.25461538,4.1167366 C5.00794235,3.38469001 5.89989617,2.80051743 6.88153846,2.3962704 C7.89914918,1.9788032 8.99314766,1.76468031 10.0980769,1.76671329 C11.2161538,1.76671329 12.2976923,1.9793007 13.3146154,2.3962704 C14.2973517,2.79876573 15.1897605,3.38315071 15.9419231,4.1167366 C16.18,4.34722611 16.4034615,4.59188811 16.61,4.84848485 L15.1634615,5.94424242 C15.105327,5.9881588 15.0781857,6.06042801 15.0935818,6.13031117 C15.108978,6.20019432 15.1642036,6.25540018 15.2357692,6.27244755 L19.4565385,7.27496503 C19.5136221,7.2883573 19.5738883,7.27582683 19.6202917,7.24091769 C19.6666951,7.20600855 19.6941901,7.15251652 19.695,7.0955711 L19.7142308,2.87888112 C19.7127637,2.80780813 19.6700752,2.74361774 19.6039147,2.71299983 C19.5377543,2.68238192 19.4594416,2.69057502 19.4015385,2.73417249 L19.4015385,2.73417249 Z" id="路径"></path>
            </g>
        </g>
    </g>
</svg>