<?xml version="1.0" encoding="UTF-8"?>
<svg width="20px" height="20px" viewBox="0 0 20 20" version="1.1" xmlns="http://www.w3.org/2000/svg" xmlns:xlink="http://www.w3.org/1999/xlink">
    <title>icon-</title>
    <g id="截屏0401" stroke="none" stroke-width="1" fill="none" fill-rule="evenodd">
        <g id="图片预览图标" transform="translate(-1159.000000, -174.000000)" fill="#8F959E" fill-rule="nonzero">
            <g id="icon-" transform="translate(1159.000000, 174.000000)">
                <path d="M13,16.6666667 L2,16.6666667 C0.8954305,16.6666667 1.3527075e-16,15.7712362 0,14.6666667 L0,2 C-1.3527075e-16,0.8954305 0.8954305,1.09108455e-15 2,0 L13,0 C14.1045695,-1.18396092e-15 15,0.8954305 15,2 L15,14.6666667 C15,15.7712362 14.1045695,16.6666667 13,16.6666667 Z M1.66666667,15 L13.3333333,15 L13.3333333,1.66666667 L1.66666667,1.66666667 L1.66666667,15 Z" id="形状"></path>
                <path d="M18,20 L7.58333333,20 C6.47876383,20 5.58333333,19.1045695 5.58333333,18 L5.58333333,15.8333333 L5.58333333,15.8333333 L7.25,15.8333333 L7.25,18.3333333 L18.3333333,18.3333333 L18.3333333,5 L14.75,5 L14.75,3.33333333 L18,3.33333333 C19.1045695,3.33333333 20,4.22876383 20,5.33333333 L20,18 C20,19.1045695 19.1045695,20 18,20 Z" id="路径"></path>
            </g>
        </g>
    </g>
</svg>