<?xml version="1.0" encoding="UTF-8"?>
<svg width="20px" height="20px" viewBox="0 0 20 20" version="1.1" xmlns="http://www.w3.org/2000/svg" xmlns:xlink="http://www.w3.org/1999/xlink">
    <title>编组 8</title>
    <g id="截屏0401" stroke="none" stroke-width="1" fill="none" fill-rule="evenodd">
        <g id="icon" transform="translate(-221.000000, -111.000000)">
            <g id="编组-7备份-2" transform="translate(81.000000, 101.000000)">
                <g id="编组-8" transform="translate(140.000000, 10.000000)">
                    <rect id="矩形" opacity="0" x="0" y="0" width="20" height="20"></rect>
                    <path d="M9.37822772,2.3736981 C9.82773786,2.08543077 10.2846954,1.82021134 10.7398093,1.5798436 L11.0428434,1.42329996 C11.6479577,1.11765534 12.2461239,0.856904108 12.8153189,0.645321929 L13.0974002,0.543648055 C13.1439774,0.527391911 13.1903279,0.511482167 13.2364389,0.495921298 L13.5101304,0.406762378 C13.5552328,0.392606906 13.6000703,0.378805257 13.6446301,0.365359906 L13.9085553,0.288983167 C14.993511,-0.0112733995 15.8889995,-0.0857509313 16.3958826,0.104212111 C17.5471743,0.535678257 17.952948,1.59385914 17.5157399,2.93716117 C17.2697863,3.69284235 16.7495545,4.61347551 15.9298894,5.75024446 L15.7092547,6.05172942 C15.5955246,6.20495701 15.476663,6.36193748 15.352614,6.52278443 L15.097583,6.84966727 C14.9665928,7.01572 14.8303779,7.18571492 14.6888826,7.35976562 C13.3312315,9.02978719 12.1333183,11.0343088 11.3086275,12.9297521 L11.2458303,13.0757407 L11.1264821,13.3629896 C11.0880948,13.4576008 11.0511077,13.5510151 11.0155356,13.6430572 L10.9130789,13.9148912 C10.8967152,13.9594523 10.8807089,14.0036265 10.8650618,14.0473919 L10.7755053,14.3049028 C10.7471,14.3889876 10.7201464,14.4712617 10.6946592,14.5515498 L10.6226116,14.7862806 L10.5594508,15.0080432 L10.505265,15.2157852 C10.4969868,15.2491821 10.4890863,15.2819509 10.4815653,15.3140698 L10.4410073,15.4988083 C10.3990366,15.7048281 10.3758399,15.8768523 10.3720478,16.0073622 L10.3715505,16.0343688 L10.398035,16.0231858 L10.501601,15.973655 L10.5600236,15.9429982 L10.6562466,15.8892402 L10.7548338,15.8305137 L10.8569489,15.7659913 L10.9637555,15.6948454 L11.0764176,15.6162487 L11.258935,15.4825734 L11.461173,15.3274795 L11.6870589,15.1481743 L12.0318144,14.8666122 L13.2542218,13.8450269 L13.4881842,13.6538098 L13.6962758,13.4874777 L13.8845932,13.3414265 L14.059233,13.2110522 L14.226292,13.0917508 L14.3364638,13.0160945 L14.4477824,12.9419491 C15.2684318,12.4032486 15.9035462,12.2007272 16.5033215,12.5420144 C17.1624932,12.9170994 17.3447193,13.6302968 17.2279912,14.5026943 C17.1870165,14.8089297 17.1160218,15.1216747 17.0028123,15.5050296 L16.9297232,15.7440285 L16.8459173,16.0030507 L16.7508091,16.2851729 L16.4498916,17.1509519 L16.3461127,17.4574215 L16.2520617,17.752135 L16.1973445,17.9433009 L16.1639633,18.0747064 L16.1284388,18.2338395 L16.1239724,18.2568354 L16.1536016,18.2472265 C16.2383731,18.2170339 16.3361326,18.1745836 16.445696,18.1191609 L16.5300632,18.0751505 C16.7782422,17.9419034 17.0636651,17.7568796 17.3850945,17.5204179 L17.6047015,17.3551601 L17.8348956,17.1746838 L18.0755954,16.9790113 L18.3267192,16.7681649 L18.5881858,16.5421669 L18.8599135,16.3010396 L18.9995999,16.1748095 L20,17.4592462 L19.7448189,17.6890941 L19.4962811,17.9086044 L19.2542915,18.1176906 L19.0187552,18.3162659 L18.7895771,18.504244 L18.5666622,18.681538 L18.3499155,18.8480615 C18.3142998,18.8749131 18.2789371,18.9013123 18.2438255,18.9272573 L18.0361529,19.0774625 L17.8344109,19.2166807 C17.8012762,19.2389634 17.7683846,19.2607846 17.7357342,19.2821426 L17.54271,19.4047178 C16.4017388,20.106645 15.5681931,20.2035791 14.9497112,19.6113429 C14.5055542,19.1860341 14.4586886,18.6153049 14.6114447,17.8697605 L14.6456652,17.7133853 L14.69658,17.5057077 L14.756159,17.2919717 L14.8106172,17.114086 L14.9017109,16.8353162 L15.1310306,16.1695955 L15.2892083,15.7151383 L15.4093802,15.3562426 L15.4769148,15.1437664 L15.5349151,14.9503793 C15.5438126,14.9196274 15.5523317,14.8895872 15.5604819,14.8602171 L15.6050322,14.6917011 C15.6184572,14.637986 15.6304824,14.5866163 15.6411834,14.5372576 L15.6693895,14.39488 C15.6775178,14.3492089 15.6843976,14.3052143 15.6901046,14.2625618 L15.7001848,14.1743456 L15.7040394,14.1224432 C15.6004176,14.168113 15.479483,14.2339887 15.3403487,14.3214235 L15.2050092,14.4093602 L15.0556336,14.5116559 L14.8474469,14.6628636 L14.6767329,14.7933388 L14.486833,14.943553 L14.2717223,15.1181032 L13.7417708,15.5586004 L13.1527354,16.0531607 L12.8423007,16.3101709 L12.4791423,16.6038396 L12.3159578,16.7319836 L12.1630468,16.849039 L12.0189173,16.9560343 L11.882077,17.0539985 L11.7510337,17.14396 L11.5620743,17.2661479 L11.4389956,17.3406036 C11.4185718,17.3526175 11.398172,17.3644479 11.377765,17.3761164 L11.2549885,17.4443548 C10.2228174,18.0019212 9.27662182,17.898596 8.91773281,16.7459428 C8.65661422,15.9073014 9.01958526,14.3158033 9.78483672,12.4904886 L9.91606542,12.1841935 C9.98350414,12.0300525 10.0536509,11.874488 10.1263773,11.7178004 L10.2752318,11.4030167 L10.4307371,11.085772 C10.4571963,11.0327224 10.483923,10.9795926 10.5109126,10.9263936 L10.6759665,10.6064587 C10.7039885,10.5530276 10.7322639,10.4995495 10.7607879,10.4460356 L10.9348769,10.124612 C10.9643762,10.0709995 10.9941147,10.0173734 11.0240874,9.96374494 L11.2066981,9.64203404 L11.3947046,9.32079913 L11.5878787,9.0005742 C11.6204923,8.94731721 11.6533118,8.89412455 11.6863323,8.84100735 L11.8868301,8.52329862 L12.0919249,8.20793485 C12.1610307,8.10326375 12.2308647,7.99907248 12.3013888,7.89545003 L12.5149934,7.58637815 L12.7325105,7.2812532 L12.9537121,6.98060918 C13.1023571,6.78179214 13.2533063,6.58631838 13.4062554,6.39489988 L13.8449362,5.85010608 L14.1442518,5.47022832 L14.330602,5.22901275 L14.5066055,4.99724792 L14.6724407,4.77478106 L14.828286,4.56145936 L15.0437131,4.25828975 L15.175364,4.06716248 L15.3553356,3.7965683 C15.374184,3.76755948 15.3926534,3.73889987 15.4107474,3.7105863 L15.5635586,3.46502109 L15.654469,3.3114373 C15.6689022,3.28650447 15.6829786,3.26190177 15.6967019,3.237626 L15.7748349,3.09586912 L15.8446724,2.96180585 C15.8556306,2.94009462 15.8662507,2.91869759 15.8765362,2.89761158 L15.9342652,2.77480225 L15.9841447,2.65930455 L16.0263533,2.5509657 L16.0610692,2.44963288 L16.0884708,2.35515332 L16.1087365,2.26737421 C16.1729725,1.94353492 16.0838529,1.764017 15.8865924,1.69009028 C15.8581131,1.67941716 15.8075751,1.67366595 15.7381282,1.6732044 L15.6459173,1.6752131 L15.5367633,1.68244109 C15.5172262,1.68408855 15.4970336,1.68595935 15.4762106,1.68805645 L15.34391,1.70337815 L15.19769,1.72427217 C15.1722273,1.72822671 15.146235,1.73241931 15.1197383,1.73685292 L14.9549074,1.7663702 C14.926494,1.77177961 14.8976266,1.7774359 14.8683305,1.78334202 L14.6876098,1.82180029 C14.6566994,1.82871751 14.6254105,1.83589045 14.5937685,1.84332205 L14.3998796,1.89103904 C14.3669256,1.89951703 14.3336688,1.90825957 14.3001344,1.91726959 L14.0957987,1.97456304 C12.8828339,2.32892042 11.5256031,2.94869901 10.171429,3.81712024 C6.63982766,6.08190849 3.60772412,9.66618846 1.53905349,14.6670715 L1.42512148,14.9463563 L0,14.2773405 C2.20351024,8.79966271 5.50633965,4.85670957 9.37822772,2.3736981 Z" id="路径-2" fill="#FFFFFF" fill-rule="nonzero"></path>
                </g>
            </g>
        </g>
    </g>
</svg>