<?xml version="1.0" encoding="UTF-8"?>
<svg width="20px" height="20px" viewBox="0 0 20 20" version="1.1" xmlns="http://www.w3.org/2000/svg" xmlns:xlink="http://www.w3.org/1999/xlink">
    <title>编组 4备份</title>
    <g id="截屏0401" stroke="none" stroke-width="1" fill="none" fill-rule="evenodd">
        <g id="图片预览图标" transform="translate(-1027.000000, -174.000000)" fill="#8F959E">
            <g id="编组-4备份" transform="translate(1027.000000, 174.000000)">
                <path d="M18,0 C19.1045695,-2.02906125e-16 20,0.8954305 20,2 L20,18 C20,19.1045695 19.1045695,20 18,20 L2,20 C0.8954305,20 1.3527075e-16,19.1045695 0,18 L0,2 C-1.3527075e-16,0.8954305 0.8954305,2.02906125e-16 2,0 L18,0 Z M16,4 L4,4 L4,6 L9,6 L9,16 L11,16 L11,6 L16,6 L16,4 Z" id="形状结合"></path>
            </g>
        </g>
    </g>
</svg>