<?xml version="1.0" encoding="UTF-8"?>
<svg width="20px" height="20px" viewBox="0 0 20 20" version="1.1" xmlns="http://www.w3.org/2000/svg" xmlns:xlink="http://www.w3.org/1999/xlink">
    <title>编组 5</title>
    <g id="截屏0401" stroke="none" stroke-width="1" fill="none" fill-rule="evenodd">
        <g id="图片预览图标" transform="translate(-1247.000000, -174.000000)" fill="#8F959E" fill-rule="nonzero">
            <g id="编组-5" transform="translate(1247.000000, 174.000000)">
                <g id="zhuanfa_2" transform="translate(7.000000, 2.000000)">
                    <path d="M0.939235363,9.53333333 C0.420459483,9.53333333 0,9.12992281 0,8.63218246 L0,5.16004211 C0,3.78724211 1.16306205,2.67134035 2.5938794,2.67134035 L9.78980289,2.67134035 L8.61209797,1.54138947 C8.24393444,1.1901614 8.24393444,0.618161404 8.61209797,0.264926316 C8.9802615,-0.0883087719 9.57434355,-0.0883087719 9.94250708,0.264926316 L12.7246519,2.93425965 C12.9944991,3.19115789 13.0739889,3.5805193 12.9275602,3.91769825 C12.7811316,4.25487719 12.4380701,4.47564912 12.0594474,4.47564912 L2.5938794,4.47564912 C2.20061381,4.47564912 1.88056256,4.78272281 1.88056256,5.16004211 L1.88056256,8.63218246 C1.88056256,9.12992281 1.46010308,9.53333333 0.939235363,9.53333333 L0.939235363,9.53333333 Z" id="路径"></path>
                </g>
                <path d="M9,0 L9,2 L2,2 L2,18 L18,18 L18,9 L20,9 L20,18 C20,19.1045695 19.1045695,20 18,20 L2,20 C0.8954305,20 1.3527075e-16,19.1045695 0,18 L0,2 C-1.3527075e-16,0.8954305 0.8954305,2.02906125e-16 2,0 L9,0 Z" id="形状结合"></path>
            </g>
        </g>
    </g>
</svg>