<?xml version="1.0" encoding="UTF-8"?>
<svg width="20px" height="20px" viewBox="0 0 20 20" version="1.1" xmlns="http://www.w3.org/2000/svg" xmlns:xlink="http://www.w3.org/1999/xlink">
    <title>路径</title>
    <g id="截屏0401" stroke="none" stroke-width="1" fill="none" fill-rule="evenodd">
        <g id="icon" transform="translate(-521.000000, -150.000000)" fill="#FFFFFF" fill-rule="nonzero">
            <path d="M540.401547,152.734172 L539.045778,153.762424 C537.197317,151.470956 534.322317,150 531.093855,150 C525.51924,150 521.007317,154.370723 521,159.778648 C520.992701,165.190676 525.514624,169.58042 531.093855,169.58042 C535.451932,169.58042 539.165778,166.89958 540.57924,163.144615 C540.59682,163.097646 540.594268,163.045805 540.572153,163.000674 C540.550038,162.955542 540.510204,162.920879 540.461547,162.904429 L539.09847,162.44979 C538.999663,162.416998 538.891925,162.466668 538.855778,162.561678 C538.812008,162.678751 538.764679,162.794543 538.713855,162.908904 C538.299524,163.862384 537.697831,164.72858 536.942317,165.459207 C536.188842,166.19116 535.296757,166.775207 534.315009,167.179301 C533.297279,167.596817 532.203144,167.810941 531.098086,167.808858 C529.980393,167.808858 528.898855,167.596643 527.881932,167.179301 C526.899227,166.776916 526.006821,166.19266 525.254624,165.459207 C524.498972,164.728613 523.897147,163.862415 523.482701,162.908904 C523.05237,161.921435 522.831694,160.85999 522.833855,159.787972 C522.833855,158.703776 523.052701,157.655012 523.482701,156.666667 C523.897191,155.713289 524.499013,154.847221 525.254624,154.116737 C526.007951,153.38469 526.899905,152.800517 527.881547,152.39627 C528.899158,151.978803 529.993157,151.76468 531.098086,151.766713 C532.216163,151.766713 533.297701,151.979301 534.314624,152.39627 C535.297361,152.798766 536.189769,153.383151 536.941932,154.116737 C537.180009,154.347226 537.40347,154.591888 537.610009,154.848485 L536.16347,155.944242 C536.105336,155.988159 536.078195,156.060428 536.093591,156.130311 C536.108987,156.200194 536.164212,156.2554 536.235778,156.272448 L540.456547,157.274965 C540.513631,157.288357 540.573897,157.275827 540.620301,157.240918 C540.666704,157.206009 540.694199,157.152517 540.695009,157.095571 L540.71424,152.878881 C540.712773,152.807808 540.670084,152.743618 540.603924,152.713 C540.537763,152.682382 540.45945,152.690575 540.401547,152.734172 L540.401547,152.734172 Z" id="路径" transform="translate(530.857120, 159.790210) scale(-1, 1) translate(-530.857120, -159.790210) "></path>
        </g>
    </g>
</svg>