<?xml version="1.0" encoding="UTF-8"?>
<svg width="20px" height="20px" viewBox="0 0 20 20" version="1.1" xmlns="http://www.w3.org/2000/svg" xmlns:xlink="http://www.w3.org/1999/xlink">
    <title>路径备份</title>
    <g id="截屏0401" stroke="none" stroke-width="1" fill="none" fill-rule="evenodd">
        <g id="icon" transform="translate(-561.000000, -150.000000)" fill="#3E7EFF" fill-rule="nonzero">
            <path d="M580.401547,152.734172 L579.045778,153.762424 C577.197317,151.470956 574.322317,150 571.093855,150 C565.51924,150 561.007317,154.370723 561,159.778648 C560.992701,165.190676 565.514624,169.58042 571.093855,169.58042 C575.451932,169.58042 579.165778,166.89958 580.57924,163.144615 C580.59682,163.097646 580.594268,163.045805 580.572153,163.000674 C580.550038,162.955542 580.510204,162.920879 580.461547,162.904429 L579.09847,162.44979 C578.999663,162.416998 578.891925,162.466668 578.855778,162.561678 C578.812008,162.678751 578.764679,162.794543 578.713855,162.908904 C578.299524,163.862384 577.697831,164.72858 576.942317,165.459207 C576.188842,166.19116 575.296757,166.775207 574.315009,167.179301 C573.297279,167.596817 572.203144,167.810941 571.098086,167.808858 C569.980393,167.808858 568.898855,167.596643 567.881932,167.179301 C566.899227,166.776916 566.006821,166.19266 565.254624,165.459207 C564.498972,164.728613 563.897147,163.862415 563.482701,162.908904 C563.05237,161.921435 562.831694,160.85999 562.833855,159.787972 C562.833855,158.703776 563.052701,157.655012 563.482701,156.666667 C563.897191,155.713289 564.499013,154.847221 565.254624,154.116737 C566.007951,153.38469 566.899905,152.800517 567.881547,152.39627 C568.899158,151.978803 569.993157,151.76468 571.098086,151.766713 C572.216163,151.766713 573.297701,151.979301 574.314624,152.39627 C575.297361,152.798766 576.189769,153.383151 576.941932,154.116737 C577.180009,154.347226 577.40347,154.591888 577.610009,154.848485 L576.16347,155.944242 C576.105336,155.988159 576.078195,156.060428 576.093591,156.130311 C576.108987,156.200194 576.164212,156.2554 576.235778,156.272448 L580.456547,157.274965 C580.513631,157.288357 580.573897,157.275827 580.620301,157.240918 C580.666704,157.206009 580.694199,157.152517 580.695009,157.095571 L580.71424,152.878881 C580.712773,152.807808 580.670084,152.743618 580.603924,152.713 C580.537763,152.682382 580.45945,152.690575 580.401547,152.734172 L580.401547,152.734172 Z" id="路径备份" transform="translate(570.857120, 159.790210) scale(-1, 1) translate(-570.857120, -159.790210) "></path>
        </g>
    </g>
</svg>