<svg viewBox="0 0 16 16" xmlns="http://www.w3.org/2000/svg"><g fill="#397AFF" fill-rule="nonzero"><path d="M7.997 14.293a.773.773 0 0 1-.349-.08L1.521 11.14c-.314-.156-.416-.497-.223-.756.191-.26.6-.344.918-.185l5.78 2.898 5.789-2.898c.316-.157.727-.074.918.185.191.26.09.6-.224.757l-6.135 3.072a.79.79 0 0 1-.348.08Zm0-2.596a.773.773 0 0 1-.349-.08L1.521 8.545c-.314-.157-.416-.497-.223-.757.191-.259.6-.343.918-.184l5.78 2.897 5.789-2.897c.316-.158.727-.075.918.184.191.26.09.6-.224.758l-6.135 3.071a.79.79 0 0 1-.348.08Z"/><path d="M7.997 8.37a.824.824 0 0 1-.346-.075l-6.13-2.869c-.199-.094-.321-.26-.321-.44s.122-.347.321-.44L7.65 1.675c.22-.1.473-.1.693 0l6.136 2.872c.198.093.32.26.32.44s-.122.347-.322.44L8.343 8.295a.83.83 0 0 1-.346.075ZM3.155 4.986l4.842 2.267 4.848-2.267-4.848-2.27-4.842 2.269v.001Z"/></g></svg>