<?xml version="1.0" encoding="UTF-8"?>
<svg width="20px" height="20px" viewBox="0 0 20 20" version="1.1" xmlns="http://www.w3.org/2000/svg" xmlns:xlink="http://www.w3.org/1999/xlink">
    <title>发起行动</title>
    <g id="页面-1" stroke="none" stroke-width="1" fill="none" fill-rule="evenodd">
        <g id="入口-图标修改" transform="translate(-521.000000, -488.000000)">
            <g id="对话编辑框" transform="translate(360.000000, 477.000000)">
                <g transform="translate(1.000000, 1.000000)" id="发起行动">
                    <g transform="translate(160.000000, 10.000000)">
                        <rect id="矩形备份-4" fill-opacity="0" fill="#A04242" fill-rule="nonzero" x="0" y="0" width="20" height="20"></rect>
                        <g id="编组" transform="translate(2.000000, 2.000000)" stroke="#C9CFD8" stroke-linecap="round" stroke-linejoin="round" stroke-width="1.5">
                            <line x1="5.26984127" y1="12.2316602" x2="5.26984127" y2="6.61003861" id="路径" transform="translate(5.269841, 9.420849) rotate(90.000000) translate(-5.269841, -9.420849) "></line>
                            <g id="编组-20" transform="translate(2.285714, 2.285714)">
                                <polyline id="路径" points="8 2.69607148 8 0 4.99938138 0"></polyline>
                                <polyline id="路径" points="0 4.57142857 2.025507 2.62334342 4.65901104 3.46267366 7.08327096 0.820714382"></polyline>
                            </g>
                            <line x1="3.63016622" y1="13.1711358" x2="3.63016622" y2="10.8288642" id="路径备份" transform="translate(3.630166, 12.000000) rotate(90.000000) translate(-3.630166, -12.000000) "></line>
                            <path d="M6.28573333,16 L0.888888889,16 C0.397968889,16 0,15.6128 0,15.1351351 L0,0.864864865 C0,0.387212973 0.397968889,0 0.888888889,0 L15.1111111,0 C15.6020444,0 16,0.387212973 16,0.864864865 L16,5.06668108" id="路径"></path>
                            <line x1="13" y1="10" x2="13" y2="16" id="路径"></line>
                            <polyline id="路径" points="10 13 13 13 16 13"></polyline>
                        </g>
                    </g>
                </g>
            </g>
        </g>
    </g>
</svg>