<?xml version="1.0" encoding="UTF-8"?>
<svg width="16px" height="16px" viewBox="0 0 16 16" version="1.1" xmlns="http://www.w3.org/2000/svg" xmlns:xlink="http://www.w3.org/1999/xlink">
    <title>编组 7</title>
    <g id="页面-1" stroke="none" stroke-width="1" fill="none" fill-rule="evenodd">
        <g id="入口" transform="translate(-928.000000, -102.000000)" fill="#8F959E">
            <g id="编组-7" transform="translate(928.000000, 102.000000)">
                <rect id="矩形" opacity="0" x="0" y="0" width="16" height="16"></rect>
                <g id="icon/关闭" transform="translate(3.000000, 3.000000)" stroke="#8F959E" stroke-width="0.3">
                    <path d="M9.80286033,0.197139667 C10.0394279,0.433707266 10.0630847,0.802560702 9.87383061,1.06558547 L9.80286033,1.14901418 L5.952,5 L9.80286033,8.85098582 C10.0657132,9.11383871 10.0657132,9.54000744 9.80286033,9.80286033 C9.56629273,10.0394279 9.1974393,10.0630847 8.93441453,9.87383061 L8.85098582,9.80286033 L5,5.952 L1.14901418,9.80286033 C0.886161291,10.0657132 0.459992555,10.0657132 0.197139667,9.80286033 C-0.0394279333,9.56629273 -0.0630846933,9.1974393 0.126169387,8.93441453 L0.197139667,8.85098582 L4.048,5 L0.197139667,1.14901418 C-0.0657132222,0.886161291 -0.0657132222,0.459992555 0.197139667,0.197139667 C0.433707266,-0.0394279333 0.802560702,-0.0630846933 1.06558547,0.126169387 L1.14901418,0.197139667 L5,4.048 L8.85098582,0.197139667 C9.11383871,-0.0657132222 9.54000744,-0.0657132222 9.80286033,0.197139667 Z" id="形状结合"></path>
                </g>
            </g>
        </g>
    </g>
</svg>