<svg xmlns="http://www.w3.org/2000/svg" viewBox="0 0 24 24">
  <path fill="#FFF" fill-rule="evenodd" d="M12 2c5.52285 0 10 4.47715 10 10s-4.47715 10-10 10S2 17.52285 2 12 6.47715 2 12 2Zm0 3.35c-3.6782 0-6.65 3.08426-6.65 6.87708 0 2.81946 1.65673 5.32503 4.14425 6.37202.24367.10256.52518.04732.71202-.13972l1.17082-1.17206.0685-.0806c.18263-.2541.1596-.6103-.06898-.83863l-.0806-.0685c-.25411-.18263-.6103-.1596-.83864.06898L9.609 17.217l-.23114-.12709C7.72153 16.11861 6.65 14.2783 6.65 12.22708 6.65 9.14165 9.05079 6.65 12 6.65c2.94921 0 5.35 2.49165 5.35 5.57708l-.0049.2398c-.07805 1.91012-1.08453 3.61358-2.62122 4.5617l-.18288.10742-3.31503-3.7102-.37643-.4311c-.03442-.04335-.06077-.08138-.07909-.11322a.6486.6486 0 0 0-.14933-.1771l-.0267-.06065c-.12691-.24475-.19442-.51935-.19442-.80584 0-.93598.72186-1.68516 1.6-1.68516.87814 0 1.6.74918 1.6 1.68516 0 .54179-.24355 1.0378-.6471 1.35368-.2827.22127-.33248.6298-.11121.9125.22127.28268.6298.33246.91249.1112.71718-.56137 1.14582-1.43433 1.14582-2.37738 0-1.64337-1.29286-2.98516-2.9-2.98516s-2.9 1.3418-2.9 2.98516c0 .49563.11794.97536.34036 1.40428.04068.07845.09511.14512.15882.1986l.0445.08908c.07391.12845.16942.25784.28633.3911l1.29329 1.46055 2.68471 2.99362c.18926.21011.49265.27376.7504.1574 2.40653-1.08634 3.99159-3.5476 3.99159-6.30544C18.65 8.43426 15.6782 5.35 12 5.35Z"/>
</svg>
