<svg xmlns="http://www.w3.org/2000/svg" viewBox="0 0 24 24">
  <path fill="#FFF" fill-rule="evenodd" d="M12 3c4.97056 0 9 4.02944 9 9 0 1.59975-.41738 3.102-1.1492 4.40382l.82203 3.2875c.1807.72277-.26335 1.16105-.9815.98151l-3.2875-.82202C15.102 20.5826 13.59974 21 12 21c-4.97056 0-9-4.02944-9-9s4.02944-9 9-9Zm1.35 10.05h-5.4l-.10177.00685C7.48215 13.1065 7.2 13.4203 7.2 13.8c0 .41421.33579.75.75.75h5.4l.10177-.00685c.36608-.04966.64823-.36345.64823-.74315 0-.41421-.33579-.75-.75-.75Zm2.7-3.6h-8.1l-.10177.00685C7.48215 9.5065 7.2 9.8203 7.2 10.2c0 .41421.33579.75.75.75h8.1l.10177-.00685c.36608-.04966.64823-.36345.64823-.74315 0-.41421-.33579-.75-.75-.75Z"/>
</svg>
