<svg xmlns="http://www.w3.org/2000/svg" xmlns:xlink="http://www.w3.org/1999/xlink" viewBox="0 0 24 24">
  <defs>
    <path id="a" d="M0 0h24v24H0z"/>
    <path id="c" d="M16.28571 0C17.2325 0 18 .76751 18 1.71429V16.2857C18 17.2325 17.23249 18 16.28571 18H6.52436V0h9.76135ZM4.81008 18H3.66597c-.94678 0-1.7143-.76751-1.7143-1.71429V1.7143C1.95168.7675 2.7192 0 3.66598 0h1.1441v18Z"/>
  </defs>
  <g fill="none" fill-rule="evenodd">
    <mask id="b" fill="#fff">
      <use xlink:href="#a"/>
    </mask>
    <use xlink:href="#a" fill="#D8D8D8" fill-opacity="0"/>
    <g mask="url(#b)">
      <g fill="#FFF" transform="translate(3 3)">
        <path d="M1.2852 5.14286h.66648v2.5704H1.2852C.5754 7.71326 0 7.13786 0 6.42806c0-.7098.5754-1.2852 1.2852-1.2852Zm0 5.14388h.66648v2.5704H1.2852c-.7098 0-1.2852-.5754-1.2852-1.2852 0-.7098.5754-1.2852 1.2852-1.2852Z"/>
        <use xlink:href="#c"/>
      </g>
    </g>
  </g>
</svg>
