<svg xmlns="http://www.w3.org/2000/svg" viewBox="0 0 20 20">
  <g fill="#FFF" fill-rule="evenodd">
    <path fill-opacity=".01" fill-rule="nonzero" d="M0 0h20v20H0z"/>
    <path fill-rule="nonzero" d="M10 1.25c4.8325 0 8.75 3.9175 8.75 8.75 0 1.25882-.26582 2.45555-.7444 3.53712l-.34435-.00087.00092-.70629-.00909-.17973c-.09018-.75016-.55012-1.34697-1.17383-1.61105.04073-.24693.06627-.49883.07719-.75451L16.5625 10c0-3.62437-2.93813-6.5625-6.5625-6.5625S3.4375 6.37563 3.4375 10v6.5625H10c.42461 0 .8398-.04033 1.24195-.11736.3213.57518.92357.96753 1.62595.96753l.96585-.00017-.00057.4554c-1.15758.56502-2.45835.8821-3.83318.8821H2.34375c-.60406 0-1.09375-.48969-1.09375-1.09375V10c0-4.8325 3.9175-8.75 8.75-8.75Z"/>
    <path fill-rule="nonzero" d="M15.74817 11.8682c.47794 0 .87235.36687.9302.84105l.0073.12064-.00038 1.68232 1.87538.00061c.49905 0 .90362.43056.90362.96168 0 .49026-.34472.89484-.79027.95418l-.11335.0075-1.87538-.00097.00038 1.97132c0 .53112-.41973.96168-.9375.96168-.47794 0-.87234-.36687-.9302-.84105l-.0073-.12063-.00038-1.97132-1.94239.00096c-.49905 0-.90361-.43055-.90361-.96167 0-.49027.34471-.89485.79026-.95419l.11335-.00749 1.94239-.00061.00038-1.68232c0-.53112.41973-.96168.9375-.96168Z"/>
    <circle cx="6.77813" cy="9.69171" r="1.28398"/>
    <circle cx="10" cy="9.69171" r="1.28398"/>
    <circle cx="13.22187" cy="9.69171" r="1.28398"/>
  </g>
</svg>
