<svg xmlns="http://www.w3.org/2000/svg" xmlns:xlink="http://www.w3.org/1999/xlink" viewBox="0 0 24 24">
  <defs>
    <path id="a" d="M0 0h24v24H0z"/>
  </defs>
  <g fill="none" fill-rule="evenodd">
    <use xlink:href="#a" fill="#DB9898" fill-opacity="0"/>
    <path fill="#FFF" d="M20.8882 5.93048A1.5 1.5 0 0 1 21 6.49872V17.5c0 .82843-.67157 1.5-1.5 1.5h-15c-.82843 0-1.5-.67157-1.5-1.5V6.49872c0-.82843.67157-1.5 1.5-1.5a1.5 1.5 0 0 1 .56824.1118L12 7.94794l6.93176-2.83742c.76668-.31383 1.64261.05328 1.95644.81996Zm-7.64687 7.91189H6.6534c-.36087 0-.65341.29254-.65341.65341s.29254.65341.65341.65341h6.58792c.36086 0 .6534-.29254.6534-.6534 0-.36088-.29254-.65342-.6534-.65342Zm-3.19737-3.21041H6.6534c-.36087 0-.65341.29254-.65341.6534 0 .36088.29254.65342.65341.65342h3.39055c.36087 0 .6534-.29254.6534-.65341s-.29253-.65341-.6534-.65341Z"/>
  </g>
</svg>
