<svg xmlns="http://www.w3.org/2000/svg" xmlns:xlink="http://www.w3.org/1999/xlink" viewBox="0 0 24 24">
  <defs>
    <path id="a" d="M0 0h24v24H0z"/>
    <path id="c" d="M0 0h24v24H0z"/>
  </defs>
  <g fill="none" fill-rule="evenodd">
    <mask id="b" fill="#fff">
      <use xlink:href="#a"/>
    </mask>
    <use xlink:href="#a" fill="#D8D8D8" fill-opacity="0"/>
    <g mask="url(#b)">
      <mask id="d" fill="#fff">
        <use xlink:href="#c"/>
      </mask>
      <use xlink:href="#c" fill="#DB9898" fill-opacity="0"/>
      <g fill="#FFF" mask="url(#d)">
        <path d="M19.11165 16.66797c-.89029 0-.89029-3.53125-.89029-3.53125v-2.47266c0-3.11328-1.88338-5.74023-4.4689-6.59375.16098-.9707-.49461-1.88476-1.46249-2.04492C12.193 2.00781 12.09601 2 11.99903 2c-.98145 0-1.77864.79687-1.7767 1.78125 0 .09766.00776.19531.02328.29102-2.45557.85546-4.46891 3.48242-4.46891 6.5918v2.44726s0 3.52539-.86507 3.55468c-.51595 0-.91163.39649-.91163.88868 0 .23632.09504.46289.26185.63085.1668.16602.3918.25977.62844.25785h14.22136c.2347.00192.46163-.09183.6265-.25785.1668-.16601.25991-.39257.26185-.6289 0-.23633-.0931-.4629-.25991-.6289-.16487-.16602-.38987-.25977-.62456-.25977h-.00388ZM11.99903 22c1.47024.00195 2.66505-1.18946 2.66699-2.66016v-.00781H9.33204C9.33204 20.80469 10.52491 22 11.99903 22Z"/>
      </g>
    </g>
  </g>
</svg>
