<svg xmlns="http://www.w3.org/2000/svg" xmlns:xlink="http://www.w3.org/1999/xlink" viewBox="0 0 24 24">
  <defs>
    <path id="a" d="M0 0h24v24H0z"/>
  </defs>
  <g fill="none" fill-rule="evenodd">
    <use xlink:href="#a" fill="#DB9898" fill-opacity="0"/>
    <path fill="#FFF" d="M20.5 9.0678v9.67358c0 .97127-.8155 1.75862-1.82145 1.75862H5.32143C4.31547 20.5 3.5 19.71265 3.5 18.74138V9.06897h16.83554c.05645 0 .11147-.0004.16446-.00118Zm-4.34374 2.32407-.00753.0064-5.31392 4.5906-2.02387-2.19837-.00676-.00719c-.22369-.23521-.6023-.25445-.85041-.04149-.24812.21294-.2727.57822-.05702.82029l.0066.0073 2.22623 2.41815.0101.0108c.3322.34926.89213.38102 1.2644.0717l.01123-.00948L16.9584 12.272l.00744-.00652c.24285-.21677.26154-.58236.0402-.82124-.22136-.23886-.59974-.26141-.84977-.05237ZM16.85713 3.5c.33531 0 .60714.26246.60714.5862v.58621h1.21428c1.00596 0 1.82143.78735 1.82143 1.75862v1.75863H3.5V6.43103c0-.97127.81547-1.75862 1.82143-1.75862H6.5357v-.5862c0-.32375.27183-.58621.60714-.58621.33532 0 .60715.26246.60715.5862v.58621h8.49999v-.5862c0-.32375.27182-.58621.60714-.58621Z"/>
  </g>
</svg>
