<svg xmlns="http://www.w3.org/2000/svg" viewBox="0 0 24 24">
  <path fill="#FFF" fill-rule="evenodd" d="M17.99945 3c1.10456 0 2 .89543 2 2l.00107 10.65673c-.39604-.31172-.8717-.5397-1.40714-.65632-.0524-.01142-.11125-.00761-.169-.00145l-.08485.00938-.07466.00794-.02986-.07143c-.4513-.98505-1.81799-1.84462-3.07977-1.84462-.93327 0-1.85907.40476-2.47876 1.0873-.42761.46898-.86959 1.00908-.99129 1.6341l-.02657.19006-.00746.09524h-.09706c-1.37392.13672-2.0806 1.40603-2.0806 2.68381 0 .72223.23145 1.39684.64955 1.90478a2.58168 2.58168 0 0 0 .07207.08244L6 20.7764c-1.10457 0-2-.89543-2-2V5c0-1.10457.89543-2 2-2h11.99945Zm-2.79861 11.31225c.9914 0 1.81267.53213 2.25264 1.46335l.02347.05443.05866-.00605c.06453-.00605.13493-.00605.19946-.00605 1.48416 0 2.26438 1.23357 2.26438 2.45505 0 .65306-.21706 1.2638-.61596 1.71732-.4517.51399-1.097.7861-1.8772.7861h-4.70476v-.00605c-.63942 0-1.17325-.22978-1.55456-.6712-.3285-.387-.51036-.901-.51036-1.45126 0-.97356.61596-1.9713 1.79508-2.00758h.07626l.00586-.07256c.04693-.53818.26985-1.03402.63943-1.42707.4869-.52004 1.21431-.82843 1.9476-.82843ZM12.0999 9.8h-4.6c-.3866 0-.7.3134-.7.7 0 .35438.26335.64726.60502.69361L7.4999 11.2h4.6c.3866 0 .7-.3134.7-.7 0-.3866-.3134-.7-.7-.7Zm3-3.6h-7.6c-.3866 0-.7.3134-.7.7 0 .35438.26335.64726.60502.69361L7.4999 7.6h7.6c.3866 0 .7-.3134.7-.7 0-.3866-.3134-.7-.7-.7Z"/>
</svg>
